<svg xmlns="http://www.w3.org/2000/svg" viewBox="0 0 512 512"><g fill-rule="evenodd" clip-rule="evenodd"><path fill="#db71a9" d="M96 10v420.4h342.1a18 18 0 0 0 17.9-17.9V28A18 18 0 0 0 438.1 10z"/><path fill="#e9aacb" d="M96 430.4V10h-4.2A35.9 35.9 0 0 0 56 45.8v420.4a35.9 35.9 0 0 1 35.8-35.8z"/><path fill="#fff" d="M416 430.4H91.8A35.9 35.9 0 0 0 56 466.2 35.9 35.9 0 0 0 91.8 502H416v-71.6z"/><path fill="#e9aacb" d="M416 430.4V502h22.1a18 18 0 0 0 17.9-17.9v-71.6a18 18 0 0 1-17.9 18H416z"/><path fill="#fff" d="M194.2 304.4h163.6v-89.6a49.1 49.1 0 1 0-36.9-89.5 49.1 49.1 0 0 0-89.8 0 49 49 0 1 0-36.9 89.5z"/><path fill="#e3eaef" d="M357.8 304.4H194.2v34.5c0 3 2.4 5.5 5.4 5.5h152.8c3 0 5.4-2.5 5.4-5.5z"/></g><path d="M438.1 0H91.8A45.8 45.8 0 0 0 46 45.8v420.4A45.8 45.8 0 0 0 91.8 512H438a28 28 0 0 0 27.9-27.9V28A28 28 0 0 0 438.1 0zM66 466.2a25.8 25.8 0 0 1 25.8-25.8H406V492H91.8A25.8 25.8 0 0 1 66 466.2zm380 18c0 4.3-3.5 7.8-7.9 7.8H426v-51.6h12.1c2.7 0 5.4-.4 7.9-1.1zm0-71.7c0 4.4-3.5 8-7.9 8H106V265.1a10 10 0 1 0-20 0v155.6c-7.3 1-14.2 3.6-20 7.6V45.8c0-12.2 8.6-22.5 20-25.1v154.5a10 10 0 1 0 20 0V20h332.1c4.4 0 7.9 3.5 7.9 7.9z"/><path d="M347 107.9a59 59 0 0 0-22 4.2 59.2 59.2 0 0 0-98 0 59 59 0 1 0-42.8 110.1V339c0 8.6 7 15.5 15.4 15.5h152.8c8.5 0 15.4-7 15.4-15.5V222.2a59.2 59.2 0 0 0-21-114.4zM204.1 334.4v-20h143.6v20zm151.4-129.3a10 10 0 0 0-7.8 9.7v79.6H204.2v-79.6a10 10 0 0 0-7.8-9.7 39.1 39.1 0 1 1 29.4-71.3 10 10 0 0 0 14.4-4.5 39.1 39.1 0 0 1 71.6 0 10 10 0 0 0 14.4 4.5 39 39 0 0 1 59.8 33.1c0 18.4-12.5 34.1-30.4 38.2zM96 210.2a10 10 0 1 0 10 10 10 10 0 0 0-10-10z"/></svg>